<?xml version="1.0" encoding="UTF-8"?>
<svg width="126px" height="89px" viewBox="0 0 126 89" version="1.1" xmlns="http://www.w3.org/2000/svg" xmlns:xlink="http://www.w3.org/1999/xlink">
    <!-- Generator: Sketch 52.2 (67145) - http://www.bohemiancoding.com/sketch -->
    <title>Logo Muses_colour (1)</title>
    <desc>Created with Sketch.</desc>
    <g id="Page-1" stroke="none" stroke-width="1" fill="none" fill-rule="evenodd">
        <g id="Logo-Muses_colour-(1)" transform="translate(-6.000000, -5.000000)">
            <ellipse id="Oval" fill="#CA4590" transform="translate(20.203000, 53.103900) rotate(29.993131) translate(-20.203000, -53.103900) " cx="20.203" cy="53.1039" rx="14.0608966" ry="14.0599944"></ellipse>
            <rect id="Rectangle" fill="#E5BD54" transform="translate(62.268162, 42.045157) rotate(29.476387) translate(-62.268162, -42.045157) " x="48.2273096" y="28.563652" width="28.0817055" height="26.9630107"></rect>
            <ellipse id="Oval" fill="#E5BD54" transform="translate(69.035000, 30.242600) rotate(29.993131) translate(-69.035000, -30.242600) " cx="69.035" cy="30.2426" rx="14.0608966" ry="14.0599944"></ellipse>
            <ellipse id="Oval" fill="#E5BD54" transform="translate(56.343600, 52.445700) rotate(29.993131) translate(-56.343600, -52.445700) " cx="56.3436" cy="52.4457" rx="14.0608966" ry="14.0599944"></ellipse>
            <path d="M130.124,25.9771 L105.773,11.9107 L86.374,45.5259 C86.331,45.5982 86.288,45.6705 86.245,45.7447 C86.202,45.8189 86.159,45.8912 86.12,45.9654 C86.108,45.983 86.101,46.0025 86.089,46.0201 C82.429,52.7037 84.761,61.126 91.394,64.956 C98.026,68.788 106.483,66.602 110.44,60.086 L110.597,59.8111 L130.124,25.9771 Z" id="Path" fill="#7986E9"></path>
            <ellipse id="Oval" fill="#7986E9" transform="translate(117.789000, 19.211400) rotate(29.993131) translate(-117.789000, -19.211400) " cx="117.789" cy="19.2114" rx="14.0608966" ry="14.0599944"></ellipse>
            <path d="M6.9801,84.504 L9.2841,84.504 L11.5521,90.456 L13.8441,84.504 L16.1241,84.504 L16.1241,93 L14.6841,93 L14.6841,85.944 L14.6601,85.944 L12.0801,93 L11.0241,93 L8.4441,85.944 L8.4201,85.944 L8.4201,93 L6.9801,93 L6.9801,84.504 Z M39.8575,89.88 C39.8575,90.392 39.7695,90.856 39.5935,91.272 C39.4175,91.68 39.1775,92.028 38.8735,92.316 C38.5695,92.604 38.2095,92.828 37.7935,92.988 C37.3775,93.14 36.9255,93.216 36.4375,93.216 C35.9495,93.216 35.4975,93.14 35.0815,92.988 C34.6655,92.828 34.3015,92.604 33.9895,92.316 C33.6855,92.028 33.4455,91.68 33.2695,91.272 C33.1015,90.856 33.0175,90.392 33.0175,89.88 L33.0175,84.504 L34.5295,84.504 L34.5295,89.832 C34.5295,90.04 34.5615,90.26 34.6255,90.492 C34.6895,90.716 34.7935,90.924 34.9375,91.116 C35.0895,91.308 35.2855,91.468 35.5255,91.596 C35.7735,91.716 36.0775,91.776 36.4375,91.776 C36.7975,91.776 37.0975,91.716 37.3375,91.596 C37.5855,91.468 37.7815,91.308 37.9255,91.116 C38.0775,90.924 38.1855,90.716 38.2495,90.492 C38.3135,90.26 38.3455,90.04 38.3455,89.832 L38.3455,84.504 L39.8575,84.504 L39.8575,89.88 Z M60.878,86.328 C60.718,86.096 60.502,85.928 60.23,85.824 C59.966,85.712 59.686,85.656 59.39,85.656 C59.214,85.656 59.042,85.676 58.874,85.716 C58.714,85.756 58.566,85.82 58.43,85.908 C58.302,85.996 58.198,86.112 58.118,86.256 C58.038,86.392 57.998,86.556 57.998,86.748 C57.998,87.036 58.098,87.256 58.298,87.408 C58.498,87.56 58.746,87.692 59.042,87.804 C59.338,87.916 59.662,88.024 60.014,88.128 C60.366,88.232 60.69,88.376 60.986,88.56 C61.282,88.744 61.53,88.988 61.73,89.292 C61.93,89.596 62.03,90 62.03,90.504 C62.03,90.96 61.946,91.36 61.778,91.704 C61.61,92.04 61.382,92.32 61.094,92.544 C60.814,92.768 60.486,92.936 60.11,93.048 C59.734,93.16 59.338,93.216 58.922,93.216 C58.394,93.216 57.886,93.128 57.398,92.952 C56.9096,92.776 56.4896,92.48 56.1376,92.064 L57.278,90.96 C57.462,91.24 57.702,91.46 57.998,91.62 C58.302,91.772 58.622,91.848 58.958,91.848 C59.134,91.848 59.31,91.824 59.486,91.776 C59.662,91.728 59.822,91.656 59.966,91.56 C60.11,91.464 60.226,91.344 60.314,91.2 C60.402,91.048 60.446,90.876 60.446,90.684 C60.446,90.372 60.346,90.132 60.146,89.964 C59.946,89.796 59.698,89.656 59.402,89.544 C59.106,89.424 58.782,89.312 58.43,89.208 C58.078,89.104 57.754,88.964 57.458,88.788 C57.162,88.604 56.9136,88.364 56.7136,88.068 C56.5136,87.764 56.4136,87.36 56.4136,86.856 C56.4136,86.416 56.5016,86.036 56.6776,85.716 C56.8616,85.396 57.098,85.132 57.386,84.924 C57.682,84.708 58.018,84.548 58.394,84.444 C58.77,84.34 59.154,84.288 59.546,84.288 C59.994,84.288 60.426,84.356 60.842,84.492 C61.266,84.628 61.646,84.852 61.982,85.164 L60.878,86.328 Z M78.604,84.504 L84.232,84.504 L84.232,85.872 L80.116,85.872 L80.116,87.96 L84.016,87.96 L84.016,89.328 L80.116,89.328 L80.116,91.632 L84.448,91.632 L84.448,93 L78.604,93 L78.604,84.504 Z M105.104,86.328 C104.944,86.096 104.728,85.928 104.456,85.824 C104.192,85.712 103.912,85.656 103.616,85.656 C103.44,85.656 103.268,85.676 103.1,85.716 C102.94,85.756 102.792,85.82 102.656,85.908 C102.528,85.996 102.424,86.112 102.344,86.256 C102.264,86.392 102.224,86.556 102.224,86.748 C102.224,87.036 102.324,87.256 102.524,87.408 C102.724,87.56 102.972,87.692 103.268,87.804 C103.564,87.916 103.888,88.024 104.24,88.128 C104.592,88.232 104.916,88.376 105.212,88.56 C105.508,88.744 105.756,88.988 105.956,89.292 C106.156,89.596 106.256,90 106.256,90.504 C106.256,90.96 106.172,91.36 106.004,91.704 C105.836,92.04 105.608,92.32 105.32,92.544 C105.04,92.768 104.712,92.936 104.336,93.048 C103.96,93.16 103.564,93.216 103.148,93.216 C102.62,93.216 102.112,93.128 101.624,92.952 C101.136,92.776 100.716,92.48 100.364,92.064 L101.504,90.96 C101.688,91.24 101.928,91.46 102.224,91.62 C102.528,91.772 102.848,91.848 103.184,91.848 C103.36,91.848 103.536,91.824 103.712,91.776 C103.888,91.728 104.048,91.656 104.192,91.56 C104.336,91.464 104.452,91.344 104.54,91.2 C104.628,91.048 104.672,90.876 104.672,90.684 C104.672,90.372 104.572,90.132 104.372,89.964 C104.172,89.796 103.924,89.656 103.628,89.544 C103.332,89.424 103.008,89.312 102.656,89.208 C102.304,89.104 101.98,88.964 101.684,88.788 C101.388,88.604 101.14,88.364 100.94,88.068 C100.74,87.764 100.64,87.36 100.64,86.856 C100.64,86.416 100.728,86.036 100.904,85.716 C101.088,85.396 101.324,85.132 101.612,84.924 C101.908,84.708 102.244,84.548 102.62,84.444 C102.996,84.34 103.38,84.288 103.772,84.288 C104.22,84.288 104.652,84.356 105.068,84.492 C105.492,84.628 105.872,84.852 106.208,85.164 L105.104,86.328 Z" id="Shape" fill="#464646" fill-rule="nonzero"></path>
        </g>
    </g>
</svg>